<svg width="36" height="36" viewBox="0 0 36 36" fill="none" xmlns="http://www.w3.org/2000/svg">
<circle cx="18" cy="18" r="18" fill="white"/>
<path d="M25.2701 11.33C23.9401 10.71 22.5001 10.26 21.0001 10C20.9737 10.0004 20.9486 10.0112 20.9301 10.03C20.7501 10.36 20.5401 10.79 20.4001 11.12C18.8091 10.8802 17.1911 10.8802 15.6001 11.12C15.4601 10.78 15.2501 10.36 15.0601 10.03C15.0501 10.01 15.0201 10 14.9901 10C13.4901 10.26 12.0601 10.71 10.7201 11.33C10.7101 11.33 10.7001 11.34 10.6901 11.35C7.97012 15.42 7.22012 19.38 7.59012 23.3C7.59012 23.32 7.60012 23.34 7.62012 23.35C9.42012 24.67 11.1501 25.47 12.8601 26C12.8901 26.01 12.9201 26 12.9301 25.98C13.3301 25.43 13.6901 24.85 14.0001 24.24C14.0201 24.2 14.0001 24.16 13.9601 24.15C13.3901 23.93 12.8501 23.67 12.3201 23.37C12.2801 23.35 12.2801 23.29 12.3101 23.26C12.4201 23.18 12.5301 23.09 12.6401 23.01C12.6601 22.99 12.6901 22.99 12.7101 23C16.1501 24.57 19.8601 24.57 23.2601 23C23.2801 22.99 23.3101 22.99 23.3301 23.01C23.4401 23.1 23.5501 23.18 23.6601 23.27C23.7001 23.3 23.7001 23.36 23.6501 23.38C23.1301 23.69 22.5801 23.94 22.0101 24.16C21.9701 24.17 21.9601 24.22 21.9701 24.25C22.2901 24.86 22.6501 25.44 23.0401 25.99C23.0701 26 23.1001 26.01 23.1301 26C24.8501 25.47 26.5801 24.67 28.3801 23.35C28.4001 23.34 28.4101 23.32 28.4101 23.3C28.8501 18.77 27.6801 14.84 25.3101 11.35C25.3001 11.34 25.2901 11.33 25.2701 11.33ZM14.5201 20.91C13.4901 20.91 12.6301 19.96 12.6301 18.79C12.6301 17.62 13.4701 16.67 14.5201 16.67C15.5801 16.67 16.4201 17.63 16.4101 18.79C16.4101 19.96 15.5701 20.91 14.5201 20.91ZM21.4901 20.91C20.4601 20.91 19.6001 19.96 19.6001 18.79C19.6001 17.62 20.4401 16.67 21.4901 16.67C22.5501 16.67 23.3901 17.63 23.3801 18.79C23.3801 19.96 22.5501 20.91 21.4901 20.91Z" fill="black"/>
</svg>
