<svg width="126" height="126" viewBox="0 0 126 126" fill="none" xmlns="http://www.w3.org/2000/svg">
<circle cx="63" cy="63" r="63" fill="#CD5F00"/>
<path d="M99.3764 61.2993C95.9795 45.9419 90.8673 37.7451 83.2839 35.5062C81.6898 35.0385 80.0363 34.8049 78.3751 34.8127C76.1794 34.8127 74.2671 35.3476 72.2443 35.9146C69.8067 36.5984 67.0376 37.3752 63.0001 37.3752C58.9626 37.3752 56.1919 36.6 53.7495 35.9162C51.7251 35.3476 49.8144 34.8127 47.6251 34.8127C45.9073 34.8066 44.197 35.0395 42.5433 35.5046C35 37.7339 29.891 45.9275 26.4444 61.2897C22.7384 77.821 24.5626 88.2584 31.5598 90.68C32.519 91.0181 33.5282 91.1925 34.5451 91.1957C39.3386 91.1957 43.1824 87.203 45.8089 83.9342C48.7766 80.2346 52.2504 78.3576 63.0001 78.3576C72.6015 78.3576 76.575 79.6596 80.0071 83.9342C82.1644 86.6216 84.2032 88.5019 86.2372 89.6854C88.9422 91.2582 91.6457 91.6073 94.2706 90.7056C98.4058 89.2946 100.776 85.5646 101.317 79.6164C101.729 75.0551 101.095 69.0637 99.3764 61.2993ZM55.3126 60.4377H50.1876V65.5627C50.1876 66.2423 49.9176 66.8941 49.4371 67.3747C48.9565 67.8552 48.3047 68.1252 47.6251 68.1252C46.9455 68.1252 46.2937 67.8552 45.8131 67.3747C45.3326 66.8941 45.0626 66.2423 45.0626 65.5627V60.4377H39.9376C39.258 60.4377 38.6062 60.1677 38.1256 59.6871C37.6451 59.2066 37.3751 58.5548 37.3751 57.8752C37.3751 57.1956 37.6451 56.5438 38.1256 56.0632C38.6062 55.5827 39.258 55.3127 39.9376 55.3127H45.0626V50.1877C45.0626 49.5081 45.3326 48.8563 45.8131 48.3757C46.2937 47.8952 46.9455 47.6252 47.6251 47.6252C48.3047 47.6252 48.9565 47.8952 49.4371 48.3757C49.9176 48.8563 50.1876 49.5081 50.1876 50.1877V55.3127H55.3126C55.9922 55.3127 56.644 55.5827 57.1246 56.0632C57.6051 56.5438 57.8751 57.1956 57.8751 57.8752C57.8751 58.5548 57.6051 59.2066 57.1246 59.6871C56.644 60.1677 55.9922 60.4377 55.3126 60.4377ZM68.7657 61.0783C68.1322 61.0783 67.5129 60.8905 66.9862 60.5385C66.4594 60.1865 66.0489 59.6863 65.8064 59.101C65.564 58.5157 65.5006 57.8716 65.6242 57.2503C65.7477 56.6289 66.0528 56.0582 66.5008 55.6102C66.9487 55.1623 67.5195 54.8572 68.1408 54.7336C68.7622 54.61 69.4062 54.6734 69.9915 54.9159C70.5768 55.1583 71.0771 55.5689 71.429 56.0956C71.781 56.6224 71.9689 57.2417 71.9689 57.8752C71.9689 58.7247 71.6314 59.5394 71.0307 60.1401C70.43 60.7408 69.6153 61.0783 68.7657 61.0783ZM75.8126 68.1252C75.1787 68.1252 74.5591 67.9371 74.0322 67.5848C73.5053 67.2325 73.0947 66.7318 72.8525 66.146C72.6103 65.5602 72.5474 64.9158 72.6716 64.2942C72.7959 63.6727 73.1017 63.1019 73.5505 62.6543C73.9993 62.2066 74.5708 61.9022 75.1926 61.7795C75.8145 61.6568 76.4588 61.7214 77.0439 61.9651C77.6291 62.2087 78.1288 62.6205 78.4798 63.1483C78.8308 63.6761 79.0173 64.2962 79.0157 64.9301C79.0136 65.7782 78.6752 66.5909 78.0747 67.1898C77.4743 67.7888 76.6607 68.1252 75.8126 68.1252ZM75.8126 54.0314C75.1791 54.0314 74.5598 53.8436 74.033 53.4916C73.5063 53.1397 73.0957 52.6394 72.8533 52.0541C72.6109 51.4688 72.5474 50.8248 72.671 50.2034C72.7946 49.5821 73.0997 49.0113 73.5477 48.5634C73.9956 48.1154 74.5664 47.8103 75.1877 47.6867C75.8091 47.5631 76.4531 47.6266 77.0384 47.869C77.6237 48.1114 78.1239 48.522 78.4759 49.0488C78.8279 49.5755 79.0157 50.1948 79.0157 50.8283C79.0157 51.6778 78.6783 52.4926 78.0776 53.0933C77.4769 53.694 76.6621 54.0314 75.8126 54.0314ZM82.8595 61.0783C82.226 61.0783 81.6067 60.8905 81.0799 60.5385C80.5532 60.1865 80.1426 59.6863 79.9002 59.101C79.6577 58.5157 79.5943 57.8716 79.7179 57.2503C79.8415 56.6289 80.1466 56.0582 80.5945 55.6102C81.0425 55.1623 81.6132 54.8572 82.2346 54.7336C82.8559 54.61 83.5 54.6734 84.0853 54.9159C84.6706 55.1583 85.1708 55.5689 85.5228 56.0956C85.8747 56.6224 86.0626 57.2417 86.0626 57.8752C86.0626 58.7247 85.7251 59.5394 85.1244 60.1401C84.5237 60.7408 83.709 61.0783 82.8595 61.0783Z" fill="white"/>
</svg>
