<svg width="126" height="126" viewBox="0 0 126 126" fill="none" xmlns="http://www.w3.org/2000/svg">
<circle cx="63" cy="63" r="63" fill="#CD5F00"/>
<path d="M50.2879 26.6437C45.748 31.4188 40.4658 37.3982 35.9655 43.3985C30.7165 50.3973 26.7062 57.5034 26.0984 61.9319L43.0279 66.1642C43.4159 52.8046 47.4711 39.7893 50.2881 26.6437H50.2879ZM75.7121 26.6437C78.8261 39.8505 82.0161 52.7785 82.9723 66.1642L99.9016 61.9317C99.2938 57.5031 95.2835 50.397 90.0344 43.3985C85.5341 37.398 80.252 31.4188 75.7121 26.6436V26.6437ZM30.8086 34.8461V45.607C31.7356 44.2776 32.686 42.9646 33.6594 41.6688L33.6914 41.6268V34.8461H30.8086ZM92.3086 34.8461V41.6268L92.3406 41.6688C93.314 42.9646 94.2644 44.2776 95.1914 45.607V34.8461H92.3086ZM61.5586 39.9711V48.403C62.5083 47.7107 63.5 47.8077 64.4414 48.403V39.9711H61.5586ZM63 50.9658C61.5438 52.0767 60.3409 53.6818 59.388 55.0777C58.6231 56.2046 57.9338 57.3846 57.4552 58.3921C56.9928 59.3656 56.7802 60.2187 56.7654 60.4219L59.0962 74.4047H66.9038L69.2346 60.4219C69.2198 60.2186 69.0071 59.3656 68.5448 58.3921C68.0661 57.3846 67.3769 56.2044 66.612 55.0777C65.4763 53.5476 64.4888 52.0511 63 50.9658ZM61.3984 55.9867H64.6016L66.8437 61.7524H59.1562L61.3984 55.9867ZM46.3369 60.2969L44.1179 91.3629L50.8425 88.0004L48.5662 77.7568L55.9156 72.8574L54.6104 65.0242L46.3369 60.2969ZM79.6631 60.2969L71.3901 65.0244L70.0843 72.8576L77.4339 77.7571L75.1574 88.0005L81.8821 91.3629L79.6631 60.2969ZM28.2552 65.4425C31.4124 69.4429 34.7805 73.4881 37.6018 77.592C39.1945 79.9085 40.6161 82.2522 41.7087 84.6315L42.8193 69.0835L28.2552 65.4425ZM97.7448 65.4425L83.1806 69.0835L84.2913 84.6315C85.3839 82.2522 86.8055 79.9085 88.3982 77.5918C91.2195 73.4881 94.5876 69.4431 97.7449 65.4425H97.7448ZM56.4352 75.976L51.8088 79.0601L54.7604 92.3422H58.9961V84.6547H61.5586V77.2875H56.6538L56.4352 75.976ZM69.5648 75.976L69.3462 77.2875H64.4414V84.6547H67.0039V92.3422H71.2395L74.1912 79.0601L69.5648 75.976ZM55.4011 95.225L56.3191 99.3563L58.9961 98.0177V95.225H55.4011ZM67.0039 95.225V98.0177L69.6809 99.3563L70.5989 95.225H67.0039Z" fill="white"/>
</svg>
