<svg width="30" height="30" viewBox="0 0 30 30" fill="none" xmlns="http://www.w3.org/2000/svg">
<path d="M21.2499 5C22.6324 5 23.6937 6.05375 24.4799 7.1875L24.7462 7.58875L24.9899 7.98875C25.0674 8.11958 25.1416 8.24792 25.2124 8.37375C26.1962 10.1325 27.0524 12.4288 27.6187 14.6975C28.1812 16.9488 28.4924 19.3 28.2937 21.1488C28.0937 23.005 27.1374 25 24.9999 25C23.0824 25 21.5712 23.975 20.3437 22.9737L18.9562 21.81C17.8024 20.865 16.5399 20 14.9999 20C13.4599 20 12.1962 20.865 11.0449 21.81L9.65741 22.9725C8.42741 23.975 6.91616 25 4.99991 25C2.86116 25 1.90491 23.005 1.70616 21.1488C1.50866 19.2988 1.81866 16.9488 2.38116 14.6975C2.94741 12.4288 3.80366 10.1325 4.78741 8.37375L5.00991 7.9875L5.25366 7.58875L5.51991 7.1875C6.30616 6.05375 7.36741 5 8.74991 5C9.38741 5 10.0212 5.155 10.6437 5.3375L11.3849 5.565C11.5074 5.6025 11.6291 5.63833 11.7499 5.6725C12.8312 5.9825 13.9374 6.25 14.9999 6.25C16.0624 6.25 17.1687 5.9825 18.2499 5.6725L19.3562 5.33875C19.9787 5.155 20.6124 5 21.2499 5ZM10.6249 10C9.79611 10 9.00125 10.3292 8.4152 10.9153C7.82915 11.5013 7.49991 12.2962 7.49991 13.125C7.49991 13.9538 7.82915 14.7487 8.4152 15.3347C9.00125 15.9208 9.79611 16.25 10.6249 16.25C11.4537 16.25 12.2486 15.9208 12.8346 15.3347C13.4207 14.7487 13.7499 13.9538 13.7499 13.125C13.7499 12.2962 13.4207 11.5013 12.8346 10.9153C12.2486 10.3292 11.4537 10 10.6249 10ZM19.3749 10C19.0434 10 18.7254 10.1317 18.491 10.3661C18.2566 10.6005 18.1249 10.9185 18.1249 11.25V11.875H17.4999C17.1684 11.875 16.8504 12.0067 16.616 12.2411C16.3816 12.4755 16.2499 12.7935 16.2499 13.125C16.2499 13.4565 16.3816 13.7745 16.616 14.0089C16.8504 14.2433 17.1684 14.375 17.4999 14.375H18.1249V15C18.1249 15.3315 18.2566 15.6495 18.491 15.8839C18.7254 16.1183 19.0434 16.25 19.3749 16.25C19.7064 16.25 20.0244 16.1183 20.2588 15.8839C20.4932 15.6495 20.6249 15.3315 20.6249 15V14.375H21.2499C21.5814 14.375 21.8994 14.2433 22.1338 14.0089C22.3682 13.7745 22.4999 13.4565 22.4999 13.125C22.4999 12.7935 22.3682 12.4755 22.1338 12.2411C21.8994 12.0067 21.5814 11.875 21.2499 11.875H20.6249V11.25C20.6249 10.9185 20.4932 10.6005 20.2588 10.3661C20.0244 10.1317 19.7064 10 19.3749 10ZM10.6249 12.5C10.7907 12.5 10.9496 12.5658 11.0669 12.6831C11.1841 12.8003 11.2499 12.9592 11.2499 13.125C11.2499 13.2908 11.1841 13.4497 11.0669 13.5669C10.9496 13.6842 10.7907 13.75 10.6249 13.75C10.4592 13.75 10.3002 13.6842 10.183 13.5669C10.0658 13.4497 9.99991 13.2908 9.99991 13.125C9.99991 12.9592 10.0658 12.8003 10.183 12.6831C10.3002 12.5658 10.4592 12.5 10.6249 12.5Z" fill="white"/>
</svg>
